<svg id="visual" viewBox="0 0 1920 1080" width="1920" height="1080" xmlns="http://www.w3.org/2000/svg" xmlns:xlink="http://www.w3.org/1999/xlink" version="1.1"><rect x="0" y="0" width="1920" height="1080" fill="#b8e0ff"></rect><path d="M0 214L64 284C128 354 256 494 384 518.7C512 543.3 640 452.7 768 453.5C896 454.3 1024 546.7 1152 590.3C1280 634 1408 629 1536 622.8C1664 616.7 1792 609.3 1856 605.7L1920 602L1920 1081L1856 1081C1792 1081 1664 1081 1536 1081C1408 1081 1280 1081 1152 1081C1024 1081 896 1081 768 1081C640 1081 512 1081 384 1081C256 1081 128 1081 64 1081L0 1081Z" fill="#94d0fc"></path><path d="M0 711L64 709.5C128 708 256 705 384 706.5C512 708 640 714 768 658.3C896 602.7 1024 485.3 1152 476.7C1280 468 1408 568 1536 615.5C1664 663 1792 658 1856 655.5L1920 653L1920 1081L1856 1081C1792 1081 1664 1081 1536 1081C1408 1081 1280 1081 1152 1081C1024 1081 896 1081 768 1081C640 1081 512 1081 384 1081C256 1081 128 1081 64 1081L0 1081Z" fill="#70b4f2"></path><path d="M0 582L64 590C128 598 256 614 384 653.2C512 692.3 640 754.7 768 783.5C896 812.3 1024 807.7 1152 793.5C1280 779.3 1408 755.7 1536 755.5C1664 755.3 1792 778.7 1856 790.3L1920 802L1920 1081L1856 1081C1792 1081 1664 1081 1536 1081C1408 1081 1280 1081 1152 1081C1024 1081 896 1081 768 1081C640 1081 512 1081 384 1081C256 1081 128 1081 64 1081L0 1081Z" fill="#5397e6"></path><path d="M0 691L64 703.3C128 715.7 256 740.3 384 770.8C512 801.3 640 837.7 768 824.7C896 811.7 1024 749.3 1152 727C1280 704.7 1408 722.3 1536 718.7C1664 715 1792 690 1856 677.5L1920 665L1920 1081L1856 1081C1792 1081 1664 1081 1536 1081C1408 1081 1280 1081 1152 1081C1024 1081 896 1081 768 1081C640 1081 512 1081 384 1081C256 1081 128 1081 64 1081L0 1081Z" fill="#4179d7"></path><path d="M0 914L64 923.5C128 933 256 952 384 952C512 952 640 933 768 925.3C896 917.7 1024 921.3 1152 921.3C1280 921.3 1408 917.7 1536 912.5C1664 907.3 1792 900.7 1856 897.3L1920 894L1920 1081L1856 1081C1792 1081 1664 1081 1536 1081C1408 1081 1280 1081 1152 1081C1024 1081 896 1081 768 1081C640 1081 512 1081 384 1081C256 1081 128 1081 64 1081L0 1081Z" fill="#3d5ac4"></path></svg>